<svg width="200" height="200" xmlns="http://www.w3.org/2000/svg">
  <!-- White background -->
  <rect width="100%" height="100%" fill="white"/>

  <!-- Connections between first and second layers -->
  <line x1="50" y1="50" x2="80" y2="50" stroke="#000" stroke-width="2.5"/>
  <line x1="50" y1="50" x2="80" y2="100" stroke="#000" stroke-width="1.5"/>
  <line x1="50" y1="50" x2="80" y2="150" stroke="#000" stroke-width="1.5"/>
  <line x1="50" y1="100" x2="80" y2="50" stroke="#000" stroke-width="1.5"/>
  <line x1="50" y1="100" x2="80" y2="100" stroke="#000" stroke-width="1.5"/>
  <line x1="50" y1="100" x2="80" y2="150" stroke="#000" stroke-width="1.5"/>
  <line x1="50" y1="150" x2="80" y2="50" stroke="#000" stroke-width="1.5"/>
  <line x1="50" y1="150" x2="80" y2="100" stroke="#000" stroke-width="1.5"/>
  <line x1="50" y1="150" x2="80" y2="150" stroke="#000" stroke-width="2.5"/>

  <!-- Arc connections from second layer to final point (thicker) -->
  <path d="M80,50 A60,60 0 0,1 130,100" stroke="#000" stroke-width="2.5" fill="none"/>
  <line x1="80" y1="100" x2="130" y2="100" stroke="#000"/>
  <path d="M80,150 A60,60 0 0,0 130,100" stroke="#000" stroke-width="2.5" fill="none"/>

  <!-- First layer of nodes (purple) -->
  <circle cx="50" cy="50" r="5" fill="purple" stroke="black" stroke-width="2"/>
  <circle cx="50" cy="100" r="5" fill="purple" stroke="black" stroke-width="2"/>
  <circle cx="50" cy="150" r="5" fill="purple" stroke="black" stroke-width="2"/>

  <!-- Serif-like arrows for first layer -->
  <line x1="45" y1="45" x2="40" y2="40" stroke="black" stroke-width="1.5"/>

  <line x1="45" y1="95" x2="40" y2="90" stroke="black" stroke-width="1.5"/>
  <line x1="45" y1="105" x2="40" y2="110" stroke="black" stroke-width="1.5"/>

  <line x1="45" y1="155" x2="40" y2="160" stroke="black" stroke-width="1.5"/>

  <!-- Second layer of nodes (blue) -->
  <circle cx="80" cy="50" r="5" fill="blue" stroke="black" stroke-width="2"/>
  <circle cx="80" cy="100" r="5" fill="blue" stroke="black" stroke-width="2"/>
  <circle cx="80" cy="150" r="5" fill="blue" stroke="black" stroke-width="2"/>

  <!-- Final point (red) -->
  <circle cx="130" cy="100" r="5" fill="red" stroke="black" stroke-width="2"/>

  <!-- Unconnected googly eye (green outer, black pupil) -->
  <circle cx="100" cy="70" r="5" fill="green" stroke="black" stroke-width="2"/>
  <circle cx="101" cy="71" r="2" fill="black"/>
</svg>
